<svg width="32" height="12" viewBox="0 0 32 12" fill="none" xmlns="http://www.w3.org/2000/svg">
    <path fill-rule="evenodd" clip-rule="evenodd" d="M11.1434 0.506733L9.36197 11.4545H12.212L13.9937 0.506733H11.1434ZM6.96399 0.506733L4.24663 8.03653L3.92519 6.4151L3.92542 6.41563L3.85459 6.05222C3.52572 5.34346 2.76405 3.9964 1.32581 2.84679C0.900597 2.50699 0.471971 2.21698 0.0576172 1.96927L2.52726 11.4545H5.49682L10.0316 0.506733H6.96399ZM18.0874 3.54606C18.0874 2.30831 20.8631 2.46736 22.0828 3.13945L22.4895 0.788155C22.4895 0.788155 21.2343 0.310791 19.9259 0.310791C18.5115 0.310791 15.1527 0.92936 15.1527 3.93498C15.1527 6.76364 19.0949 6.79879 19.0949 8.28387C19.0949 9.76895 15.5591 9.50355 14.3923 8.56674L13.9682 11.0244C13.9682 11.0244 15.2408 11.643 17.1857 11.643C19.1304 11.643 22.065 10.6355 22.065 7.89495C22.065 5.0486 18.0874 4.7835 18.0874 3.54606ZM29.7178 0.506733H27.4263C26.3682 0.506733 26.1105 1.32261 26.1105 1.32261L21.8601 11.4545H24.8308L25.425 9.82847H29.0484L29.3827 11.4545H31.9997L29.7178 0.506733ZM26.2464 7.58187L27.7441 3.48495L28.5866 7.58187H26.2464Z" fill="#005BAC"/>
</svg>
